<?xml version="1.0" standalone="no"?>
<!DOCTYPE svg PUBLIC "-//W3C//DTD SVG 20010904//EN"
 "http://www.w3.org/TR/2001/REC-SVG-20010904/DTD/svg10.dtd">
<svg version="1.0" xmlns="http://www.w3.org/2000/svg"
 width="880.000000pt" height="586.000000pt" viewBox="0 0 880.000000 586.000000"
 preserveAspectRatio="xMidYMid meet">

<g transform="translate(0.000000,586.000000) scale(0.100000,-0.100000)"
fill="#000000" stroke="none">
<path d="M3390 5559 c-309 -40 -611 -180 -829 -386 -185 -173 -222 -250 -336
-681 -70 -267 -126 -332 -359 -412 -342 -118 -586 -316 -711 -575 -54 -113
-75 -193 -82 -320 -11 -192 29 -315 222 -689 68 -133 139 -284 157 -336 30
-88 32 -104 32 -225 l0 -130 -83 -285 c-97 -332 -119 -434 -127 -590 -6 -117
6 -254 25 -273 7 -7 8 -3 5 10 -10 35 10 88 34 91 26 4 28 11 6 27 -23 17 -5
66 45 128 22 26 45 64 51 85 6 20 14 44 16 52 7 20 41 -24 50 -65 8 -39 31
-85 57 -112 l20 -23 -37 -15 c-48 -20 -43 -25 17 -16 41 7 47 6 47 -9 0 -20
16 -35 64 -60 40 -20 38 -14 -16 51 -21 25 -38 52 -38 60 1 26 68 107 135 162
36 30 114 79 173 110 l107 56 49 -37 48 -36 -17 33 c-9 18 -14 39 -12 45 7 18
125 64 209 81 86 18 341 31 422 21 76 -10 66 -19 -78 -76 -151 -60 -226 -122
-262 -216 -19 -49 -18 -48 -45 -34 -22 12 -26 -2 -4 -20 9 -7 26 -9 46 -5 18
4 67 10 109 14 l77 7 19 -49 c11 -27 22 -51 27 -54 4 -2 7 23 7 56 l0 61 53 0
c113 0 231 -20 287 -48 30 -15 56 -32 57 -38 2 -5 -15 -18 -38 -28 -60 -27
-105 -70 -141 -138 -21 -40 -52 -78 -92 -110 l-60 -50 -19 38 c-21 42 -46 74
-57 74 -4 0 -10 -45 -13 -101 -6 -114 -14 -129 -80 -148 -23 -7 -67 -25 -97
-40 -30 -16 -68 -31 -85 -35 -16 -4 -37 -9 -46 -12 -12 -3 -20 5 -28 27 -6 17
-8 35 -5 40 3 5 0 9 -5 9 -6 0 -11 10 -11 23 -1 22 -1 22 -14 -3 -8 -14 -12
-28 -9 -33 8 -14 -18 -76 -35 -82 -9 -3 -35 -32 -57 -65 -22 -32 -82 -104
-133 -159 l-94 -101 2595 0 2595 0 21 112 c45 242 52 377 40 753 -4 117 -2
135 18 177 23 51 19 58 -32 58 -18 0 -26 -8 -35 -35 -6 -19 -16 -35 -20 -35
-5 0 -3 17 5 39 13 38 13 39 -15 60 -16 11 -33 21 -39 21 -5 0 -8 -27 -8 -60
1 -33 0 -60 -3 -60 -4 0 -12 17 -19 38 -8 20 -22 55 -32 76 -20 42 -25 61 -9
36 5 -8 11 -12 14 -10 2 3 -4 16 -14 30 -16 22 -18 22 -17 5 2 -15 -5 -20 -23
-21 -14 0 -52 -7 -85 -14 -91 -21 -260 -19 -317 3 -79 31 -138 115 -138 197 1
47 37 105 108 171 90 86 105 109 93 141 -16 42 -39 42 -122 -2 -102 -53 -144
-54 -198 -5 -74 67 -77 117 -12 188 61 68 71 88 71 140 0 57 -7 72 -71 153
l-48 61 24 11 c16 8 25 20 25 35 0 32 -18 47 -57 47 -48 0 -42 25 14 60 96 61
152 35 228 -105 83 -151 145 -186 284 -160 77 15 85 15 119 -2 41 -20 69 -68
83 -141 11 -55 -2 -80 -70 -145 -55 -53 -62 -74 -32 -101 16 -15 31 -16 98
-11 92 8 129 -3 183 -57 32 -32 70 -112 70 -148 0 -9 -15 -21 -34 -28 -47 -17
-55 -67 -20 -123 13 -21 29 -39 34 -39 16 0 12 10 -20 42 -29 29 -41 56 -19
42 8 -4 9 3 4 24 -3 17 -2 33 4 37 6 3 9 0 8 -7 -2 -7 -2 -10 0 -5 3 4 11 7
19 7 9 0 13 4 10 8 -3 5 1 9 9 9 8 0 12 -4 9 -9 -3 -4 6 -8 20 -8 28 0 28 -5
5 115 -11 58 -50 131 -68 127 -7 -1 -10 1 -8 5 8 12 -15 38 -48 55 -47 25
-114 30 -172 15 l-53 -14 28 27 c47 46 61 68 72 109 8 29 16 40 33 43 16 2 23
11 25 30 3 23 -3 32 -31 48 -19 12 -38 32 -41 45 -3 13 -21 40 -40 59 -18 20
-30 39 -27 42 3 4 -2 4 -13 0 -17 -6 -18 -5 -4 16 25 37 82 51 161 39 38 -5
75 -7 82 -4 8 2 25 39 40 82 31 94 47 118 85 128 28 8 22 13 -122 98 -225 133
-306 218 -343 362 -47 181 13 283 373 638 262 259 365 373 449 502 150 229
181 447 96 661 l-26 64 -23 -47 c-27 -57 -73 -107 -92 -100 -7 2 -11 1 -8 -4
7 -11 -47 -31 -84 -31 -15 0 -40 10 -55 22 -36 28 -60 30 -85 6 -27 -25 -25
-35 11 -94 64 -100 60 -134 -23 -187 -43 -27 -97 -22 -154 15 -52 33 -93 40
-118 18 -22 -17 -20 -38 9 -85 47 -77 24 -135 -54 -135 -28 0 -44 9 -78 42
-55 54 -63 50 -124 -67 -46 -88 -95 -145 -125 -145 -8 0 -26 11 -39 25 -32 31
-33 96 -4 190 11 37 19 68 17 69 -13 11 -142 56 -158 56 -25 0 -40 -25 -80
-133 -40 -107 -73 -147 -123 -147 -24 0 -46 8 -64 24 -41 36 -38 108 11 249
35 102 37 110 22 132 -9 14 -30 31 -46 40 -16 8 -34 24 -40 34 -26 49 1 131
54 166 14 9 52 19 85 22 51 5 66 2 113 -22 53 -26 55 -27 86 -11 43 22 43 65
1 131 -17 27 -33 63 -36 82 -5 28 0 38 35 73 56 56 83 54 218 -15 60 -30 116
-55 126 -55 34 0 50 43 43 112 -6 56 -4 65 13 82 31 27 89 37 156 25 71 -12
154 -48 180 -77 17 -20 43 -21 31 -2 -3 4 2 13 10 20 8 7 15 9 15 4 0 -5 4 -3
9 5 5 8 32 16 61 19 36 3 51 1 46 -6 -3 -6 -1 -14 5 -18 8 -4 9 -3 5 4 -8 13
5 16 20 5 5 -5 -4 4 -20 19 -45 42 -156 96 -232 114 -97 23 -250 14 -369 -21
-189 -55 -338 -130 -725 -363 -273 -165 -481 -272 -596 -308 -76 -24 -85 -29
-81 -48 43 -206 72 -363 90 -492 21 -147 24 -159 44 -162 16 -2 31 -23 58 -78
19 -41 35 -77 35 -79 0 -2 21 -48 46 -102 119 -250 241 -594 273 -768 27 -147
30 -176 31 -272 l0 -83 38 0 c43 0 72 -23 72 -58 l0 -22 -395 0 -395 0 0 23
c0 51 22 57 204 57 186 0 201 4 254 65 120 135 109 299 -44 696 -39 101 -57
161 -59 202 -2 31 -8 63 -14 70 -5 7 -12 33 -15 57 l-6 45 12 -40 c6 -22 17
-49 24 -60 14 -19 14 -19 14 3 0 12 -6 22 -12 22 -10 0 -10 2 0 9 14 8 13 62
-1 61 -15 -1 -35 25 -26 35 13 13 11 28 -3 19 -8 -5 -9 -2 -5 10 4 10 3 15 -4
11 -5 -4 -7 -15 -4 -25 3 -10 1 -21 -5 -25 -14 -9 -42 14 -34 27 4 6 10 5 15
-3 7 -11 9 -10 9 3 0 9 -5 20 -10 23 -6 4 -8 11 -4 16 3 5 10 7 15 4 5 -4 9 3
9 15 0 12 -4 19 -9 15 -5 -3 -12 5 -14 17 -3 17 -5 14 -6 -9 -1 -35 -26 -47
-33 -15 -3 9 -4 -136 -4 -323 1 -240 -3 -369 -13 -438 l-14 -99 -46 7 c-25 4
-47 8 -48 9 -1 1 3 49 9 106 15 141 14 636 -1 785 -23 237 -52 405 -103 618
l-31 127 -66 0 c-142 1 -286 52 -402 144 -76 60 -170 180 -285 366 -52 85
-122 191 -155 236 -72 100 -190 212 -278 264 -173 103 -469 151 -721 119z
m422 -486 c32 -21 58 -40 58 -43 0 -3 -44 -49 -98 -103 l-99 -98 -36 17 c-20
10 -37 22 -37 26 0 16 134 238 144 238 5 0 36 -17 68 -37z m283 -163 c25 -39
45 -74 45 -78 0 -4 -67 -28 -148 -54 l-147 -48 -27 33 c-15 17 -28 35 -28 39
0 5 249 178 258 178 1 0 22 -32 47 -70z m-645 -222 c0 -5 0 -12 0 -16 0 -5
-17 -16 -39 -25 -99 -44 -194 -178 -208 -294 -5 -47 -3 -55 18 -72 l24 -19 14
34 c13 34 13 34 80 34 64 0 140 24 155 48 3 5 -14 12 -40 15 -25 2 -51 10 -57
17 -9 10 -7 11 10 6 29 -9 118 -9 174 -1 46 7 47 6 53 -22 17 -86 28 -214 29
-333 0 -114 -4 -152 -26 -243 -29 -115 -50 -167 -70 -167 -6 0 -46 6 -87 14
-41 8 -76 13 -77 12 -1 -1 -30 -69 -63 -150 -49 -119 -59 -154 -54 -181 4 -23
1 -43 -11 -62 -17 -29 -17 -30 38 -140 85 -169 152 -276 213 -342 49 -54 61
-61 112 -71 31 -6 138 -31 237 -55 225 -56 438 -83 499 -65 129 40 176 32 238
-41 24 -27 58 -59 76 -71 31 -19 33 -24 27 -58 -4 -26 -2 -40 9 -49 8 -7 18
-26 21 -43 l7 -30 14 28 c8 15 13 39 12 53 l-3 26 100 0 100 0 3 -57 3 -58
-306 0 -305 0 0 36 c0 19 4 33 8 30 4 -2 8 4 8 15 0 10 -2 19 -3 19 -2 0 -39
-18 -83 -40 l-80 -40 -197 0 c-420 0 -941 -69 -1371 -180 -84 -22 -155 -40
-158 -40 -2 0 -4 17 -4 38 0 20 -7 80 -15 132 -25 160 -15 449 24 687 7 49 6
54 -15 68 -42 28 -58 72 -58 165 0 103 19 156 100 285 31 48 76 134 100 189
40 95 46 103 96 134 50 31 57 32 123 27 47 -4 79 -12 97 -25 l27 -20 23 43
c13 23 32 61 42 83 18 42 18 42 -5 74 -21 28 -24 43 -24 123 0 77 4 99 23 136
13 24 32 46 43 48 14 4 19 14 19 42 1 103 62 270 119 325 24 23 40 28 112 34
83 8 128 4 129 -10z m2112 -1123 c-2 -19 -6 -35 -8 -35 -2 0 -4 16 -4 35 0 19
4 35 8 35 4 0 6 -16 4 -35z m46 -56 c-7 -21 -5 -38 10 -72 23 -53 39 -121 23
-97 -6 8 -11 20 -11 27 0 7 -14 41 -31 77 -33 70 -34 92 -1 92 17 0 18 -4 10
-27z m49 -31 c-3 -8 -6 -5 -6 6 -1 11 2 17 5 13 3 -3 4 -12 1 -19z m-900
-1100 c-3 -8 -6 -5 -6 6 -1 11 2 17 5 13 3 -3 4 -12 1 -19z m-1509 -239 c-20
-11 -24 -50 -8 -78 8 -16 -1 -20 -97 -35 -178 -29 -311 -68 -576 -170 l-67
-26 -10 23 c-7 15 -6 39 3 76 l12 54 77 23 c110 32 359 89 518 117 159 29 172
30 148 16z m1937 -680 c0 -24 0 -24 -127 -27 l-128 -3 0 28 0 28 128 -1 127
-1 0 -24z m658 -13 c166 -71 131 -323 -50 -352 -154 -24 -266 155 -179 286 47
71 149 100 229 66z m-653 -71 l0 -25 -130 0 -130 0 0 25 0 25 130 0 130 0 0
-25z m0 -80 l0 -25 -130 0 -130 0 0 25 0 25 130 0 130 0 0 -25z m0 -80 l0 -25
-130 0 -130 0 0 25 0 25 130 0 130 0 0 -25z m-5 -85 l0 -25 -127 -3 -128 -3 0
25 c0 23 4 25 58 29 31 2 89 3 127 3 68 -1 70 -2 70 -26z m-77 -272 c34 -34
-6 -90 -48 -68 -35 19 -20 80 20 80 9 0 21 -5 28 -12z m-1250 -395 l83 -17 -7
-77 c-4 -49 -2 -83 5 -97 16 -29 67 -43 149 -40 57 2 75 0 89 -14 16 -16 16
-19 1 -34 -23 -24 -259 -39 -423 -28 -121 8 -130 10 -129 29 1 16 68 209 99
288 6 13 14 17 29 13 11 -3 58 -13 104 -23z m612 -226 l0 -164 -85 -9 -85 -9
0 167 0 167 68 4 c37 2 75 4 85 5 16 2 17 -12 17 -161z m355 -54 c121 -27 135
-34 119 -61 -13 -19 -60 -26 -256 -37 l-128 -8 0 96 0 95 77 -30 c43 -17 127
-41 188 -55z"/>
<path d="M3055 3940 c-3 -5 -1 -10 4 -10 6 0 11 5 11 10 0 6 -2 10 -4 10 -3 0
-8 -4 -11 -10z"/>
<path d="M3065 3920 c-27 -7 -28 -8 -5 -8 14 0 34 3 45 8 25 11 2 11 -40 0z"/>
<path d="M3132 3910 c0 -14 2 -19 5 -12 2 6 2 18 0 25 -3 6 -5 1 -5 -13z"/>
<path d="M3117 3879 c7 -7 15 -10 18 -7 3 3 -2 9 -12 12 -14 6 -15 5 -6 -5z"/>
<path d="M4791 2384 c0 -11 3 -14 6 -6 3 7 2 16 -1 19 -3 4 -6 -2 -5 -13z"/>
<path d="M4781 2346 c-15 -18 0 -28 16 -10 7 7 9 15 4 18 -5 3 -14 -1 -20 -8z"/>
<path d="M4813 2323 c9 -2 23 -2 30 0 6 3 -1 5 -18 5 -16 0 -22 -2 -12 -5z"/>
<path d="M7311 5023 c-1 -7 -9 -13 -18 -13 -15 0 -16 -2 -3 -10 13 -8 13 -10
-2 -10 -9 0 -21 -6 -25 -14 -4 -7 -40 -21 -78 -30 -39 -9 -77 -22 -85 -27 -17
-12 -15 -12 80 15 30 9 65 16 77 16 16 0 21 4 16 16 -4 12 0 14 22 8 20 -5 26
-4 21 5 -4 7 0 11 11 11 11 0 14 3 7 8 -6 4 -14 14 -17 22 -3 9 -6 10 -6 3z"/>
<path d="M7453 4988 c0 -13 1 -17 4 -10 4 10 8 10 21 0 12 -9 11 -6 -2 10 -11
12 -20 22 -20 22 -1 0 -2 -10 -3 -22z"/>
<path d="M7375 4980 c-3 -5 -1 -10 4 -10 6 0 11 5 11 10 0 6 -2 10 -4 10 -3 0
-8 -4 -11 -10z"/>
<path d="M7420 4980 c-9 -6 -10 -10 -3 -10 6 0 15 5 18 10 8 12 4 12 -15 0z"/>
<path d="M7339 4956 c-10 -20 -10 -29 -1 -38 9 -9 12 -9 12 1 0 7 5 9 10 6 7
-4 8 3 4 22 -9 39 -12 39 -25 9z"/>
<path d="M7292 4934 c29 -60 32 -64 39 -52 5 8 10 3 14 -15 8 -29 25 -37 25
-12 0 8 -5 15 -11 15 -5 0 -7 5 -3 11 4 8 9 8 17 0 18 -18 28 -12 17 9 -8 15
-15 18 -28 11 -28 -15 -37 -13 -42 10 -3 12 -12 25 -19 27 -8 3 -12 1 -9 -4z"/>
<path d="M7510 4915 c-7 -8 -16 -12 -21 -9 -5 3 -9 0 -9 -5 0 -16 16 -13 30 4
11 14 15 14 33 -2 19 -18 20 -17 6 5 -16 26 -22 27 -39 7z"/>
<path d="M7023 4899 c-18 -5 -35 -14 -38 -19 -7 -12 8 -14 19 -2 4 4 24 12 44
18 44 14 21 16 -25 3z"/>
<path d="M7430 4859 c0 -5 5 -7 10 -4 6 3 10 8 10 11 0 2 -4 4 -10 4 -5 0 -10
-5 -10 -11z"/>
<path d="M7576 4857 c3 -10 9 -15 12 -12 3 3 0 11 -7 18 -10 9 -11 8 -5 -6z"/>
<path d="M7380 4840 c-8 -11 -21 -18 -29 -15 -10 4 -10 -1 3 -20 9 -14 14 -30
11 -35 -3 -6 1 -10 10 -10 9 0 15 6 12 13 -2 6 1 21 6 32 10 19 12 18 18 -10
6 -25 7 -23 6 14 -2 50 -15 61 -37 31z"/>
<path d="M7060 4773 c8 -3 18 -11 22 -17 4 -6 10 -7 15 -3 9 10 -16 27 -37 26
-13 -1 -13 -1 0 -6z"/>
<path d="M7421 4743 c-10 -11 -10 -18 -2 -26 14 -14 23 -4 19 21 -3 18 -5 18
-17 5z"/>
<path d="M7060 4748 c0 -4 5 -19 12 -33 12 -26 28 -34 28 -12 0 15 -20 46 -20
32 0 -5 -5 -3 -10 5 -5 8 -10 12 -10 8z"/>
<path d="M7109 4744 c-11 -20 -3 -138 9 -142 7 -2 10 -8 6 -13 -3 -5 -3 -9 1
-9 3 0 10 11 15 25 10 26 51 49 60 34 4 -5 22 -11 40 -15 27 -4 31 -3 20 5 -8
6 -22 11 -31 11 -17 0 -88 64 -105 94 -6 11 -13 16 -15 10z m25 -86 c4 6 12
12 18 12 6 0 3 -8 -8 -19 -24 -23 -34 -18 -33 17 l1 27 7 -25 c5 -17 9 -21 15
-12z"/>
<path d="M7360 4724 c0 -17 22 -14 28 4 2 7 -3 12 -12 12 -9 0 -16 -7 -16 -16z"/>
<path d="M7347 4680 c-3 -11 -1 -23 4 -26 5 -3 9 6 9 20 0 31 -6 34 -13 6z"/>
<path d="M7377 4655 c-10 -10 -27 -13 -49 -10 -24 4 -28 3 -13 -3 16 -7 17
-10 5 -14 -8 -3 -4 -3 8 -1 13 2 21 0 18 -5 -3 -5 7 -9 22 -9 15 0 21 2 15 4
-21 8 -15 23 8 20 12 -1 24 5 26 13 4 13 3 13 -6 0 -10 -13 -15 -8 -12 13 2
11 -6 8 -22 -8z"/>
<path d="M6722 4573 c-7 -3 -17 -14 -24 -26 -10 -19 -9 -20 4 -9 9 7 18 9 20
5 3 -4 3 -2 1 5 -2 10 5 12 30 7 34 -8 35 -4 2 12 -11 6 -26 8 -33 6z"/>
<path d="M6900 4428 c-32 -49 -32 -52 0 -27 19 14 36 31 38 37 7 21 -23 13
-38 -10z"/>
<path d="M6829 4342 c-28 -31 -42 -52 -35 -52 2 0 19 18 36 40 36 46 35 54 -1
12z"/>
<path d="M6755 4264 c-20 -30 -10 -48 11 -20 13 18 19 46 10 46 -2 0 -11 -12
-21 -26z"/>
<path d="M5520 3748 c0 -4 7 -8 15 -8 8 0 15 4 15 8 0 5 -7 9 -15 9 -8 0 -15
-4 -15 -9z"/>
<path d="M5527 3724 c7 -3 10 -18 8 -37 -4 -26 -3 -27 3 -8 12 39 28 35 26 -6
l-3 -38 8 35 c10 47 4 60 -28 59 -14 0 -21 -3 -14 -5z"/>
<path d="M7346 2271 c-9 -94 4 -152 38 -174 13 -9 48 -23 79 -32 74 -21 82
-32 61 -84 -20 -51 -43 -65 -94 -56 -34 6 -41 3 -55 -19 -28 -43 -14 -70 51
-96 70 -29 88 -55 79 -112 -8 -48 -60 -108 -93 -108 -38 0 -79 -21 -91 -48
-12 -26 -12 -26 6 -9 20 18 41 21 67 11 18 -7 22 -49 5 -59 -7 -5 -3 -15 11
-30 12 -13 19 -28 15 -34 -3 -6 -4 -11 -2 -11 9 0 107 157 132 212 79 174 63
365 -45 550 -38 64 -134 178 -150 178 -4 0 -11 -36 -14 -79z"/>
<path d="M7122 1805 c0 -16 2 -22 5 -12 2 9 2 23 0 30 -3 6 -5 -1 -5 -18z"/>
<path d="M7110 1321 c0 -6 -7 -8 -15 -5 -8 4 -22 1 -30 -6 -17 -14 -20 -30 -5
-30 6 0 10 7 10 16 0 11 6 15 19 11 23 -6 48 7 32 17 -6 4 -11 3 -11 -3z"/>
<path d="M6927 1283 c7 -20 33 -60 33 -52 0 9 -31 69 -35 69 -3 0 -2 -8 2 -17z"/>
<path d="M7012 1260 c-15 -24 -15 -30 -2 -30 6 0 10 6 10 14 0 8 5 18 11 22 8
4 9 -1 5 -17 -6 -20 -5 -21 4 -6 11 17 6 37 -8 37 -4 0 -13 -9 -20 -20z"/>
<path d="M2374 1164 c-18 -14 -18 -15 4 -4 12 6 22 13 22 15 0 8 -5 6 -26 -11z"/>
<path d="M7007 1163 c-13 -3 -16 -10 -11 -26 14 -47 23 -53 24 -15 0 20 6 39
13 41 15 7 -2 6 -26 0z"/>
<path d="M2245 1074 c-78 -65 -95 -81 -95 -97 0 -4 21 13 48 38 26 25 67 63
92 85 71 62 43 46 -45 -26z"/>
<path d="M2109 955 c-1 -3 -2 -11 -3 -17 -1 -7 -7 -12 -13 -11 -7 2 -15 -6
-18 -17 -4 -11 -10 -18 -14 -16 -4 3 -7 -4 -7 -15 0 -15 7 -12 39 18 21 21 33
39 27 41 -5 2 -8 8 -4 13 3 5 3 9 0 9 -3 0 -7 -2 -7 -5z"/>
<path d="M1997 835 c-21 -25 -34 -50 -31 -58 3 -8 1 -18 -5 -22 -6 -3 -11 1
-11 11 0 12 -10 4 -29 -22 -30 -40 -33 -57 -6 -34 18 15 20 0 3 -20 -11 -12
-10 -12 5 0 12 9 16 21 12 37 -3 13 -1 23 5 23 5 0 10 -6 10 -12 0 -7 7 -4 16
7 8 11 12 25 10 32 -3 7 -1 15 4 18 6 4 10 0 10 -7 0 -7 9 -2 19 12 11 13 17
28 14 33 -2 4 1 15 8 23 6 8 10 17 7 19 -2 2 -21 -15 -41 -40z m13 -20 c-7 -9
-15 -13 -17 -11 -7 7 7 26 19 26 6 0 6 -6 -2 -15z"/>
<path d="M2655 815 c-25 -12 -26 -14 -5 -9 28 7 60 23 45 23 -5 0 -23 -6 -40
-14z"/>
<path d="M2570 780 c-8 -6 -59 -24 -113 -42 -98 -31 -99 -32 -123 -79 -31 -61
-30 -66 3 -35 20 19 30 22 40 14 10 -8 13 -6 13 6 0 8 13 22 30 31 16 8 37 27
46 40 9 14 19 23 23 21 4 -3 33 8 66 25 32 16 52 29 44 29 -8 0 -21 -5 -29
-10z"/>
<path d="M1451 674 c0 -11 3 -14 6 -6 3 7 2 16 -1 19 -3 4 -6 -2 -5 -13z"/>
<path d="M1854 656 c-16 -18 -39 -46 -51 -62 -12 -16 -36 -47 -52 -69 -80
-104 -131 -179 -131 -192 0 -7 -6 -13 -12 -14 -7 0 -27 -20 -45 -44 l-31 -43
27 -26 c15 -14 30 -26 33 -26 4 0 17 17 29 38 13 20 26 39 29 42 11 9 19 50 9
50 -5 0 -11 -11 -15 -25 -5 -20 -9 -23 -20 -14 -10 8 -14 8 -14 0 0 -6 4 -11
10 -11 5 0 0 -16 -11 -35 -21 -36 -37 -49 -21 -17 5 9 8 34 6 55 -2 23 1 37 8
37 6 0 22 10 35 22 20 19 26 20 33 8 5 -8 11 -12 12 -10 12 15 38 60 38 64 0
3 -7 3 -15 0 -8 -4 -15 -15 -15 -25 0 -10 -3 -19 -7 -19 -5 0 -8 15 -7 33 2
52 3 57 19 57 8 0 15 7 15 15 0 9 7 18 15 21 8 4 15 14 16 23 0 12 2 12 6 2 5
-11 7 -11 14 0 7 11 9 9 9 -6 0 -15 7 -10 27 20 14 22 29 42 32 45 17 14 60
90 51 90 -5 0 -10 7 -10 15 0 18 17 20 22 3 3 -8 6 -9 11 -1 4 6 1 16 -7 22
-10 9 -20 4 -42 -23z m16 -21 c0 -3 -7 -13 -15 -22 -8 -10 -14 -20 -13 -23 1
-3 -10 -18 -25 -34 -15 -16 -27 -35 -27 -42 0 -8 -4 -14 -10 -14 -14 0 -13 4
11 47 31 56 59 93 70 93 5 0 9 -2 9 -5z m-200 -263 c0 -10 -22 -32 -32 -32 -5
0 -3 9 4 20 13 20 28 27 28 12z m-96 -118 c-13 -11 -14 -14 -3 -11 9 3 16 -1
16 -9 0 -8 -4 -14 -9 -14 -5 0 -6 -6 -2 -12 4 -7 -2 -4 -14 6 -21 18 -21 20
-6 38 10 10 22 18 27 18 6 0 2 -7 -9 -16z"/>
<path d="M2341 606 c-9 -11 -7 -15 11 -19 12 -4 24 -4 27 -2 2 3 -1 5 -7 5 -6
0 -9 7 -6 15 8 19 -10 20 -25 1z"/>
<path d="M2295 580 c-3 -5 -1 -10 4 -10 6 0 11 5 11 10 0 6 -2 10 -4 10 -3 0
-8 -4 -11 -10z"/>
<path d="M2335 561 c-3 -6 -10 -9 -15 -6 -5 3 -11 -4 -15 -15 -3 -11 -11 -20
-16 -20 -6 0 -7 9 -4 21 5 15 4 19 -4 15 -6 -4 -11 -13 -11 -21 0 -23 -23 -23
-88 2 l-64 24 19 -24 c23 -29 93 -91 93 -83 0 4 -11 17 -25 30 -14 13 -25 27
-25 31 0 12 51 -5 82 -26 30 -22 37 -19 13 5 -13 13 -12 14 12 12 22 -3 32 3
46 27 10 16 16 31 14 34 -3 2 -8 -1 -12 -6z"/>
<path d="M1714 435 l-21 -23 23 2 c12 0 21 3 19 5 -2 2 5 11 16 20 19 15 19
17 2 17 -10 1 -27 -9 -39 -21z"/>
<path d="M2198 365 c-8 -19 -11 -32 -6 -29 10 7 31 55 25 60 -2 2 -10 -12 -19
-31z"/>
</g>
</svg>
