<?xml version="1.0" standalone="no"?>
<!DOCTYPE svg PUBLIC "-//W3C//DTD SVG 20010904//EN"
 "http://www.w3.org/TR/2001/REC-SVG-20010904/DTD/svg10.dtd">
<svg version="1.0" xmlns="http://www.w3.org/2000/svg"
 width="360.000000pt" height="360.000000pt" viewBox="0 0 360.000000 360.000000"
 preserveAspectRatio="xMidYMid meet">

<g transform="translate(0.000000,360.000000) scale(0.100000,-0.100000)"
fill="#000000" stroke="none">
<path d="M621 3131 c-18 -14 -24 -27 -22 -50 2 -33 3 -71 0 -162 -1 -36 6 -72
18 -100 l20 -44 48 48 c35 35 55 47 77 47 43 0 127 48 134 77 15 60 -32 125
-105 143 -28 7 -57 22 -70 36 -25 29 -66 31 -100 5z"/>
<path d="M2976 2955 c-67 -19 -72 -31 -31 -77 28 -30 33 -43 29 -66 -5 -26 -3
-30 25 -35 47 -10 60 -46 31 -85 -18 -24 -22 -39 -18 -70 3 -22 3 -44 -1 -50
-3 -6 -42 -13 -86 -17 -91 -7 -162 -24 -259 -60 -79 -30 -130 -32 -171 -6 -16
10 -73 57 -126 104 l-97 87 -41 -45 c-23 -24 -41 -47 -41 -49 0 -16 268 -295
302 -316 34 -20 58 -25 134 -28 l91 -4 5 -139 c3 -77 7 -142 10 -144 12 -13
160 -35 232 -35 116 0 117 1 129 146 5 65 11 120 12 122 1 1 22 -9 46 -23 24
-13 54 -25 65 -25 34 0 71 36 90 88 10 26 29 65 41 87 36 63 26 145 -21 184
-11 9 -13 25 -9 60 6 53 -13 103 -47 121 -11 6 -20 21 -20 35 0 13 -13 37 -29
53 -17 16 -33 42 -37 58 -29 120 -95 161 -208 129z"/>
<path d="M2037 2852 c-32 -34 -33 -43 -7 -67 24 -22 27 -9 3 17 -16 18 -16 20
12 43 17 13 27 26 24 29 -3 3 -18 -7 -32 -22z"/>
<path d="M1306 2813 c6 -4 14 -15 17 -23 5 -11 6 -9 4 4 -1 11 -9 21 -17 23
-10 3 -11 2 -4 -4z"/>
<path d="M2110 2816 c0 -2 8 -10 18 -17 15 -13 16 -12 3 4 -13 16 -21 21 -21
13z"/>
<path d="M2178 2709 c-19 -20 -23 -39 -10 -39 12 0 42 34 42 48 0 17 -12 13
-32 -9z"/>
<path d="M1211 2694 c0 -11 3 -14 6 -6 3 7 2 16 -1 19 -3 4 -6 -2 -5 -13z"/>
<path d="M1196 2644 c-8 -21 -1 -31 29 -36 32 -7 32 0 0 12 -16 6 -23 14 -19
25 3 8 4 15 1 15 -3 0 -8 -7 -11 -16z"/>
<path d="M2691 1624 c0 -11 3 -14 6 -6 3 7 2 16 -1 19 -3 4 -6 -2 -5 -13z"/>
<path d="M2679 1578 c4 -28 6 -29 9 -9 2 13 0 27 -5 32 -6 6 -7 -3 -4 -23z"/>
<path d="M2971 1504 c0 -11 3 -14 6 -6 3 7 2 16 -1 19 -3 4 -6 -2 -5 -13z"/>
<path d="M2991 1444 c0 -11 3 -14 6 -6 3 7 2 16 -1 19 -3 4 -6 -2 -5 -13z"/>
<path d="M2972 1380 c0 -14 2 -19 5 -12 2 6 2 18 0 25 -3 6 -5 1 -5 -13z"/>
<path d="M2931 1310 c-1 -35 14 -58 23 -34 3 9 4 19 1 22 -3 3 -6 -1 -6 -9 -1
-8 -5 0 -9 16 -7 28 -8 28 -9 5z"/>
<path d="M2603 1195 c0 -27 2 -38 4 -22 2 15 2 37 0 50 -2 12 -4 0 -4 -28z"/>
<path d="M2921 1224 c0 -11 3 -14 6 -6 3 7 2 16 -1 19 -3 4 -6 -2 -5 -13z"/>
<path d="M2755 1189 c-4 -6 -5 -12 -2 -15 2 -3 7 2 10 11 7 17 1 20 -8 4z"/>
<path d="M2727 1138 c-9 -31 -2 -33 11 -3 6 14 8 25 3 25 -5 0 -11 -10 -14
-22z"/>
<path d="M2677 1023 c-4 -3 -7 -16 -6 -27 0 -19 1 -19 10 3 10 24 8 36 -4 24z"/>
<path d="M3041 974 c0 -11 3 -14 6 -6 3 7 2 16 -1 19 -3 4 -6 -2 -5 -13z"/>
<path d="M2531 924 c0 -11 3 -14 6 -6 3 7 2 16 -1 19 -3 4 -6 -2 -5 -13z"/>
<path d="M2551 924 c0 -11 3 -14 6 -6 3 7 2 16 -1 19 -3 4 -6 -2 -5 -13z"/>
<path d="M2531 869 c-6 -18 -9 -34 -7 -36 2 -2 9 10 15 28 6 18 9 34 7 36 -2
2 -9 -10 -15 -28z"/>
<path d="M510 711 l0 -151 85 0 85 0 0 139 0 139 -27 6 c-16 2 -54 8 -85 11
l-58 6 0 -150z"/>
<path d="M2506 805 c-3 -9 -6 -22 -5 -28 0 -7 5 -1 10 12 5 13 8 26 5 28 -2 2
-6 -3 -10 -12z"/>
<path d="M2532 800 c0 -14 2 -19 5 -12 2 6 2 18 0 25 -3 6 -5 1 -5 -13z"/>
<path d="M910 804 c0 -5 23 -66 52 -136 l52 -128 78 0 c43 0 78 3 78 8 0 4
-12 59 -27 124 -30 132 -17 121 -156 134 -43 4 -77 3 -77 -2z"/>
<path d="M2576 785 c-3 -8 -3 -22 1 -30 3 -9 -3 -25 -13 -36 -14 -15 -15 -22
-5 -32 10 -9 11 -8 5 6 -5 14 -2 16 12 11 14 -4 15 -3 6 3 -10 8 -10 12 2 22
11 9 13 18 6 31 -6 11 -5 21 2 28 8 8 9 12 1 12 -6 0 -13 -7 -17 -15z"/>
<path d="M2606 785 c-9 -26 -7 -32 5 -12 6 10 9 21 6 23 -2 3 -7 -2 -11 -11z"/>
<path d="M3022 780 c0 -14 2 -19 5 -12 2 6 2 18 0 25 -3 6 -5 1 -5 -13z"/>
<path d="M2490 695 c0 -8 2 -15 4 -15 2 0 6 7 10 15 3 8 1 15 -4 15 -6 0 -10
-7 -10 -15z"/>
<path d="M2525 680 c3 -5 8 -10 11 -10 2 0 4 5 4 10 0 6 -5 10 -11 10 -5 0 -7
-4 -4 -10z"/>
<path d="M2997 600 c-72 -24 -96 -40 -97 -64 0 -14 93 -1 143 20 40 16 47 23
47 47 0 15 -3 26 -7 25 -5 0 -43 -13 -86 -28z"/>
<path d="M2348 603 c-52 -13 9 -57 116 -84 40 -10 50 -10 57 2 17 26 5 43 -37
50 -22 4 -58 15 -79 23 -20 9 -38 15 -39 15 0 -1 -9 -3 -18 -6z"/>
<path d="M532 479 c3 -30 7 -34 53 -46 61 -15 131 -17 140 -2 13 20 -26 46
-87 57 -35 7 -73 15 -86 18 -22 6 -23 4 -20 -27z"/>
<path d="M1123 473 c-35 -2 -63 -7 -63 -11 0 -4 3 -17 6 -29 6 -21 12 -23 69
-23 76 0 125 15 125 40 0 20 -21 31 -53 28 -12 -1 -50 -3 -84 -5z"/>
<path d="M1720 193 c0 -8 -13 -13 -30 -13 -16 0 -30 -4 -30 -10 0 -5 6 -7 14
-4 17 6 30 -11 20 -27 -4 -7 -16 -2 -33 14 -20 19 -37 25 -73 26 l-48 0 0 -34
c0 -33 1 -34 26 -25 14 6 29 8 34 5 5 -3 10 4 12 15 4 29 22 30 26 1 3 -19 6
-21 13 -10 7 11 9 11 9 -3 0 -45 49 -25 51 21 l1 26 7 -24 c9 -33 31 -39 32
-9 l0 23 11 -22 c8 -17 19 -21 55 -20 30 0 47 5 53 17 15 27 -2 37 -69 38 -40
1 -68 7 -73 14 -6 10 -8 10 -8 1z m-137 -38 c8 -18 -11 -31 -25 -17 -11 11 -3
32 12 32 4 0 10 -7 13 -15z m154 -7 c-3 -8 -6 -5 -6 6 -1 11 2 17 5 13 3 -3 4
-12 1 -19z m63 -8 c0 -5 -5 -10 -11 -10 -5 0 -7 5 -4 10 3 6 8 10 11 10 2 0 4
-4 4 -10z m60 6 c0 -3 -4 -8 -10 -11 -5 -3 -10 -1 -10 4 0 6 5 11 10 11 6 0
10 -2 10 -4z"/>
<path d="M1895 162 c-9 -25 14 -41 61 -39 35 1 44 5 44 18 0 30 20 32 21 2 0
-15 3 -21 6 -13 14 43 16 44 23 15 l8 -30 1 32 1 32 -79 -1 c-61 -1 -81 -4
-86 -16z m40 -12 c0 -7 -6 -15 -12 -17 -8 -3 -13 4 -13 17 0 13 5 20 13 18 6
-3 12 -11 12 -18z m40 -10 c-5 -8 -11 -8 -17 -2 -6 6 -7 16 -3 22 5 8 11 8 17
2 6 -6 7 -16 3 -22z"/>
</g>
</svg>
